<svg xmlns="http://www.w3.org/2000/svg" width="1200" height="360" viewBox="0 0 1200 360" role="img" aria-labelledby="title desc">
  <title id="title">CampusIntel MCP</title>
  <desc id="desc">University research intelligence connected to AI assistants through MCP.</desc>
  <defs>
    <linearGradient id="bg" x1="0" y1="0" x2="1" y2="1">
      <stop offset="0" stop-color="#071a2b"/>
      <stop offset="1" stop-color="#123e5a"/>
    </linearGradient>
    <linearGradient id="accent" x1="0" y1="0" x2="1" y2="0">
      <stop offset="0" stop-color="#45d6c4"/>
      <stop offset="1" stop-color="#7bb7ff"/>
    </linearGradient>
  </defs>
  <rect width="1200" height="360" rx="24" fill="url(#bg)"/>
  <g opacity=".24" stroke="#7bb7ff" stroke-width="2">
    <path d="M820 70l120 75 120-75 90 95-80 120H850l-80-120z" fill="none"/>
    <path d="M820 70l30 215m90-140l-90 140m90-140l130 140m-10-215l10 215M770 165h380"/>
  </g>
  <g fill="#45d6c4">
    <circle cx="820" cy="70" r="9"/><circle cx="940" cy="145" r="9"/>
    <circle cx="1060" cy="70" r="9"/><circle cx="1150" cy="165" r="9"/>
    <circle cx="1070" cy="285" r="9"/><circle cx="850" cy="285" r="9"/>
    <circle cx="770" cy="165" r="9"/>
  </g>
  <rect x="72" y="72" width="74" height="74" rx="18" fill="url(#accent)"/>
  <path d="M87 102l22-13 22 13-22 13zM93 112v17h32v-17M109 115v14" fill="none" stroke="#071a2b" stroke-width="5" stroke-linecap="round" stroke-linejoin="round"/>
  <text x="72" y="215" fill="#fff" font-family="Inter,Segoe UI,Arial,sans-serif" font-size="62" font-weight="700">CampusIntel</text>
  <text x="430" y="215" fill="#45d6c4" font-family="Inter,Segoe UI,Arial,sans-serif" font-size="62" font-weight="700">MCP</text>
  <text x="75" y="265" fill="#c5d9e7" font-family="Inter,Segoe UI,Arial,sans-serif" font-size="24">Source-grounded university research intelligence for AI assistants</text>
</svg>

